<svg width="36" height="31" viewBox="0 0 36 31" fill="none" xmlns="http://www.w3.org/2000/svg">
<path d="M30.6617 20.4767H5.17167M30.6617 20.4767V7.91667C30.6617 4.77333 30.6617 3.20333 29.685 2.22667C28.71 1.25 27.1383 1.25 23.995 1.25H11.8383C8.695 1.25 7.125 1.25 6.14833 2.22667C5.17167 3.20333 5.17167 4.77333 5.17167 7.91667V20.4767M30.6617 20.4767L33.5683 23.4767L33.715 23.63C34.2496 24.2173 34.5569 24.9762 34.5817 25.77L34.5833 25.9817C34.5833 26.2317 34.5833 26.355 34.5767 26.46C34.5255 27.2698 34.1808 28.0332 33.607 28.607C33.0332 29.1808 32.2698 29.5255 31.46 29.5767C31.3007 29.5835 31.1411 29.5857 30.9817 29.5833H4.85167C4.60167 29.5833 4.47833 29.5833 4.37333 29.5767C3.5635 29.5255 2.80013 29.1808 2.22635 28.607C1.65258 28.0332 1.3078 27.2698 1.25667 26.46C1.25 26.355 1.25 26.23 1.25 25.9833L1.25167 25.7717C1.2764 24.9779 1.58374 24.219 2.11833 23.6317L2.265 23.4783L5.17167 20.4767M13.75 25.4167H22.0833" stroke="black" stroke-width="2.5" stroke-linecap="round"/>
<path d="M19.1666 5.83325C19.1666 6.16477 19.0349 6.48272 18.8005 6.71714C18.5661 6.95156 18.2481 7.08325 17.9166 7.08325C17.5851 7.08325 17.2672 6.95156 17.0327 6.71714C16.7983 6.48272 16.6666 6.16477 16.6666 5.83325C16.6666 5.50173 16.7983 5.18379 17.0327 4.94937C17.2672 4.71495 17.5851 4.58325 17.9166 4.58325C18.2481 4.58325 18.5661 4.71495 18.8005 4.94937C19.0349 5.18379 19.1666 5.50173 19.1666 5.83325Z" fill="black"/>
</svg>
