<svg width="31" height="39" viewBox="0 0 31 39" fill="none" xmlns="http://www.w3.org/2000/svg">
<path d="M8.96791 2.0019C11.6395 0.345291 13.974 1.01229 15.3751 2.07622C15.9496 2.51121 16.2378 2.72871 16.4064 2.72871C16.5749 2.72871 16.8631 2.51121 17.4377 2.07622C18.8387 1.01229 21.1714 0.345291 23.8448 2.0019C27.3538 4.17689 28.1477 11.3471 20.0567 17.3972C18.5143 18.5499 17.744 19.1263 16.4064 19.1263C15.0688 19.1263 14.2984 18.5499 12.7578 17.3972C4.66506 11.3471 5.45893 4.17508 8.96791 2.0019Z" stroke="#2BBE41" stroke-width="2" stroke-linecap="round"/>
<path d="M1.00024 22.7515H5.34116C5.87403 22.7515 6.39965 22.8711 6.87634 23.1031L10.5774 24.8938C11.0541 25.124 11.5797 25.2436 12.1144 25.2436H14.003C15.83 25.2436 17.3127 26.6773 17.3127 28.4463C17.3127 28.5188 17.2637 28.5804 17.193 28.6004L12.5875 29.8745C11.7611 30.1028 10.8799 30.023 10.108 29.6498L6.15134 27.7358" stroke="#2BBE41" stroke-width="2" stroke-linecap="round" stroke-linejoin="round"/>
<path d="M17.3127 27.2826L25.6374 24.7252C26.3622 24.5028 27.1386 24.515 27.856 24.7601C28.5734 25.0052 29.195 25.4706 29.6322 26.09C30.301 27.0143 30.0291 28.3411 29.054 28.903L15.4331 36.7637C15.0072 37.0101 14.5356 37.1673 14.047 37.2255C13.5584 37.2838 13.063 37.242 12.5911 37.1027L1.00024 33.6626" stroke="#2BBE41" stroke-width="2" stroke-linecap="round" stroke-linejoin="round"/>
</svg>
