<svg width="42" height="39" viewBox="0 0 42 39" fill="none" xmlns="http://www.w3.org/2000/svg">
<mask id="path-1-inside-1_217_197" fill="white">
<path d="M20.7627 34.3615C20.8899 34.3615 21.0172 34.3297 21.1445 34.266C21.2717 34.2024 21.3672 34.1388 21.4308 34.0751L37.0844 18.4216C37.4662 18.0398 37.7449 17.6103 37.9205 17.133C38.0962 16.6558 38.1833 16.1785 38.1821 15.7013C38.1821 15.1922 38.0949 14.7067 37.9205 14.2447C37.7462 13.7828 37.4675 13.3774 37.0844 13.0287L28.9713 4.9156C28.6213 4.53381 28.2153 4.25573 27.7533 4.08138C27.2914 3.90703 26.8071 3.81922 26.3006 3.81794C25.8234 3.81794 25.3461 3.90576 24.8689 4.08138C24.3916 4.25701 23.9621 4.53508 23.5803 4.9156L23.0554 5.44057L26.587 9.01989C27.0642 9.46532 27.4142 9.97438 27.6369 10.5471C27.8596 11.1198 27.971 11.7243 27.971 12.3606C27.971 13.6969 27.5179 14.8187 26.6118 15.7261C25.7057 16.6335 24.5838 17.0866 23.2463 17.0853C22.6099 17.0853 21.9978 16.9739 21.4098 16.7512C20.8219 16.5285 20.3045 16.1944 19.8578 15.749L16.2766 12.2174L7.92485 20.5692C7.8294 20.6646 7.75813 20.7683 7.71104 20.8803C7.66396 20.9923 7.63978 21.1113 7.6385 21.2373C7.6385 21.4918 7.73395 21.7228 7.92485 21.9303C8.11575 22.1377 8.33846 22.2408 8.59299 22.2395C8.72025 22.2395 8.84752 22.2077 8.97478 22.1441C9.10205 22.0804 9.1975 22.0168 9.26113 21.9532L14.4154 16.799C14.7653 16.449 15.2031 16.2657 15.7287 16.2492C16.2543 16.2326 16.7074 16.4159 17.0879 16.799C17.4379 17.1489 17.6129 17.5944 17.6129 18.1352C17.6129 18.6761 17.4379 19.1215 17.0879 19.4715L11.9814 24.6257C11.886 24.7212 11.8147 24.8249 11.7676 24.9369C11.7205 25.0489 11.6963 25.1679 11.6951 25.2939C11.6951 25.5484 11.7905 25.7711 11.9814 25.962C12.1723 26.1529 12.395 26.2484 12.6496 26.2484C12.7768 26.2484 12.9041 26.2165 13.0313 26.1529C13.1586 26.0893 13.2541 26.0257 13.3177 25.962L18.4719 20.8555C18.8219 20.5055 19.2597 20.3223 19.7853 20.3057C20.3109 20.2892 20.764 20.4725 21.1445 20.8555C21.4945 21.2055 21.6694 21.6509 21.6694 22.1918C21.6694 22.7327 21.4945 23.1781 21.1445 23.5281L16.038 28.6823C15.9425 28.7459 15.8713 28.8414 15.8242 28.9686C15.7771 29.0959 15.7529 29.2232 15.7516 29.3504C15.7516 29.605 15.8471 29.8277 16.038 30.0186C16.2289 30.2095 16.4516 30.3049 16.7061 30.3049C16.8334 30.3049 16.953 30.2808 17.065 30.2324C17.177 30.184 17.2801 30.1128 17.3743 30.0186L22.5285 24.9121C22.8785 24.5621 23.3163 24.3788 23.8419 24.3623C24.3675 24.3458 24.8205 24.529 25.201 24.9121C25.551 25.2621 25.726 25.7075 25.726 26.2484C25.726 26.7892 25.551 27.2347 25.201 27.5846L20.0468 32.7389C19.9514 32.8343 19.8801 32.938 19.833 33.05C19.7859 33.162 19.7617 33.281 19.7605 33.407C19.7605 33.6615 19.8642 33.8843 20.0716 34.0751C20.2791 34.266 20.5094 34.3615 20.7627 34.3615ZM20.715 38.1794C19.5378 38.1794 18.4961 37.79 17.59 37.0112C16.6838 36.2323 16.1506 35.2536 15.9903 34.0751C14.9085 33.9161 14.0017 33.4706 13.27 32.7389C12.5382 32.0071 12.0928 31.1003 11.9337 30.0186C10.8519 29.8595 9.95345 29.4064 9.23822 28.6594C8.52299 27.9124 8.0852 27.0132 7.92485 25.962C6.71583 25.8029 5.72953 25.278 4.96594 24.3871C4.20235 23.4963 3.82056 22.4463 3.82056 21.2373C3.82056 20.601 3.94019 19.9888 4.17945 19.4009C4.4187 18.8129 4.76041 18.2956 5.20456 17.8489L13.5563 9.49714C14.2881 8.76536 15.1872 8.39948 16.2537 8.39948C17.3202 8.39948 18.2187 8.76536 18.9492 9.49714L22.5285 13.0765C22.5921 13.1719 22.6876 13.2438 22.8148 13.2922C22.9421 13.3405 23.0694 13.3641 23.1966 13.3628C23.483 13.3628 23.7216 13.2756 23.9125 13.1013C24.1034 12.9269 24.1988 12.6959 24.1988 12.4083C24.1988 12.2811 24.1747 12.1538 24.1263 12.0265C24.0779 11.8993 24.0067 11.8038 23.9125 11.7402L17.0879 4.9156C16.7379 4.53381 16.3326 4.25573 15.8719 4.08138C15.4112 3.90703 14.9257 3.81922 14.4154 3.81794C13.9381 3.81794 13.4609 3.90576 12.9836 4.08138C12.5064 4.25701 12.0769 4.53508 11.6951 4.9156L4.96594 11.6925C4.52052 12.1379 4.20235 12.6628 4.01146 13.2674C3.82056 13.8719 3.77284 14.4764 3.86828 15.0809C3.96373 15.6218 3.85238 16.099 3.53421 16.5126C3.21605 16.9262 2.78653 17.1648 2.24566 17.2285C1.70478 17.2921 1.22754 17.1725 0.813928 16.8696C0.400318 16.5667 0.161696 16.1454 0.0980636 15.6058C-0.0928336 14.3968 -0.00502084 13.212 0.361502 12.0513C0.728024 10.8907 1.35608 9.86429 2.24566 8.97217L8.97478 2.24304C9.73837 1.51127 10.5898 0.954486 11.529 0.572692C12.4682 0.190897 13.4303 0 14.4154 0C15.4004 0 16.3631 0.190897 17.3036 0.572692C18.2441 0.954486 19.079 1.51127 19.8082 2.24304L20.3332 2.76801L20.8581 2.24304C21.6217 1.51127 22.4731 0.954486 23.4123 0.572692C24.3516 0.190897 25.3137 0 26.2987 0C27.2837 0 28.2465 0.190897 29.187 0.572692C30.1275 0.954486 30.9623 1.51127 31.6916 2.24304L39.757 10.3084C40.4887 11.0402 41.0455 11.8834 41.4273 12.8378C41.8091 13.7923 42 14.7627 42 15.749C42 16.7353 41.8091 17.6981 41.4273 18.6373C41.0455 19.5765 40.4887 20.4114 39.757 21.1419L24.1034 36.7477C23.658 37.1931 23.1413 37.5431 22.5533 37.7976C21.9653 38.0522 21.3526 38.1794 20.715 38.1794Z"/>
</mask>
<path d="M20.7627 34.3615C20.8899 34.3615 21.0172 34.3297 21.1445 34.266C21.2717 34.2024 21.3672 34.1388 21.4308 34.0751L37.0844 18.4216C37.4662 18.0398 37.7449 17.6103 37.9205 17.133C38.0962 16.6558 38.1833 16.1785 38.1821 15.7013C38.1821 15.1922 38.0949 14.7067 37.9205 14.2447C37.7462 13.7828 37.4675 13.3774 37.0844 13.0287L28.9713 4.9156C28.6213 4.53381 28.2153 4.25573 27.7533 4.08138C27.2914 3.90703 26.8071 3.81922 26.3006 3.81794C25.8234 3.81794 25.3461 3.90576 24.8689 4.08138C24.3916 4.25701 23.9621 4.53508 23.5803 4.9156L23.0554 5.44057L26.587 9.01989C27.0642 9.46532 27.4142 9.97438 27.6369 10.5471C27.8596 11.1198 27.971 11.7243 27.971 12.3606C27.971 13.6969 27.5179 14.8187 26.6118 15.7261C25.7057 16.6335 24.5838 17.0866 23.2463 17.0853C22.6099 17.0853 21.9978 16.9739 21.4098 16.7512C20.8219 16.5285 20.3045 16.1944 19.8578 15.749L16.2766 12.2174L7.92485 20.5692C7.8294 20.6646 7.75813 20.7683 7.71104 20.8803C7.66396 20.9923 7.63978 21.1113 7.6385 21.2373C7.6385 21.4918 7.73395 21.7228 7.92485 21.9303C8.11575 22.1377 8.33846 22.2408 8.59299 22.2395C8.72025 22.2395 8.84752 22.2077 8.97478 22.1441C9.10205 22.0804 9.1975 22.0168 9.26113 21.9532L14.4154 16.799C14.7653 16.449 15.2031 16.2657 15.7287 16.2492C16.2543 16.2326 16.7074 16.4159 17.0879 16.799C17.4379 17.1489 17.6129 17.5944 17.6129 18.1352C17.6129 18.6761 17.4379 19.1215 17.0879 19.4715L11.9814 24.6257C11.886 24.7212 11.8147 24.8249 11.7676 24.9369C11.7205 25.0489 11.6963 25.1679 11.6951 25.2939C11.6951 25.5484 11.7905 25.7711 11.9814 25.962C12.1723 26.1529 12.395 26.2484 12.6496 26.2484C12.7768 26.2484 12.9041 26.2165 13.0313 26.1529C13.1586 26.0893 13.2541 26.0257 13.3177 25.962L18.4719 20.8555C18.8219 20.5055 19.2597 20.3223 19.7853 20.3057C20.3109 20.2892 20.764 20.4725 21.1445 20.8555C21.4945 21.2055 21.6694 21.6509 21.6694 22.1918C21.6694 22.7327 21.4945 23.1781 21.1445 23.5281L16.038 28.6823C15.9425 28.7459 15.8713 28.8414 15.8242 28.9686C15.7771 29.0959 15.7529 29.2232 15.7516 29.3504C15.7516 29.605 15.8471 29.8277 16.038 30.0186C16.2289 30.2095 16.4516 30.3049 16.7061 30.3049C16.8334 30.3049 16.953 30.2808 17.065 30.2324C17.177 30.184 17.2801 30.1128 17.3743 30.0186L22.5285 24.9121C22.8785 24.5621 23.3163 24.3788 23.8419 24.3623C24.3675 24.3458 24.8205 24.529 25.201 24.9121C25.551 25.2621 25.726 25.7075 25.726 26.2484C25.726 26.7892 25.551 27.2347 25.201 27.5846L20.0468 32.7389C19.9514 32.8343 19.8801 32.938 19.833 33.05C19.7859 33.162 19.7617 33.281 19.7605 33.407C19.7605 33.6615 19.8642 33.8843 20.0716 34.0751C20.2791 34.266 20.5094 34.3615 20.7627 34.3615ZM20.715 38.1794C19.5378 38.1794 18.4961 37.79 17.59 37.0112C16.6838 36.2323 16.1506 35.2536 15.9903 34.0751C14.9085 33.9161 14.0017 33.4706 13.27 32.7389C12.5382 32.0071 12.0928 31.1003 11.9337 30.0186C10.8519 29.8595 9.95345 29.4064 9.23822 28.6594C8.52299 27.9124 8.0852 27.0132 7.92485 25.962C6.71583 25.8029 5.72953 25.278 4.96594 24.3871C4.20235 23.4963 3.82056 22.4463 3.82056 21.2373C3.82056 20.601 3.94019 19.9888 4.17945 19.4009C4.4187 18.8129 4.76041 18.2956 5.20456 17.8489L13.5563 9.49714C14.2881 8.76536 15.1872 8.39948 16.2537 8.39948C17.3202 8.39948 18.2187 8.76536 18.9492 9.49714L22.5285 13.0765C22.5921 13.1719 22.6876 13.2438 22.8148 13.2922C22.9421 13.3405 23.0694 13.3641 23.1966 13.3628C23.483 13.3628 23.7216 13.2756 23.9125 13.1013C24.1034 12.9269 24.1988 12.6959 24.1988 12.4083C24.1988 12.2811 24.1747 12.1538 24.1263 12.0265C24.0779 11.8993 24.0067 11.8038 23.9125 11.7402L17.0879 4.9156C16.7379 4.53381 16.3326 4.25573 15.8719 4.08138C15.4112 3.90703 14.9257 3.81922 14.4154 3.81794C13.9381 3.81794 13.4609 3.90576 12.9836 4.08138C12.5064 4.25701 12.0769 4.53508 11.6951 4.9156L4.96594 11.6925C4.52052 12.1379 4.20235 12.6628 4.01146 13.2674C3.82056 13.8719 3.77284 14.4764 3.86828 15.0809C3.96373 15.6218 3.85238 16.099 3.53421 16.5126C3.21605 16.9262 2.78653 17.1648 2.24566 17.2285C1.70478 17.2921 1.22754 17.1725 0.813928 16.8696C0.400318 16.5667 0.161696 16.1454 0.0980636 15.6058C-0.0928336 14.3968 -0.00502084 13.212 0.361502 12.0513C0.728024 10.8907 1.35608 9.86429 2.24566 8.97217L8.97478 2.24304C9.73837 1.51127 10.5898 0.954486 11.529 0.572692C12.4682 0.190897 13.4303 0 14.4154 0C15.4004 0 16.3631 0.190897 17.3036 0.572692C18.2441 0.954486 19.079 1.51127 19.8082 2.24304L20.3332 2.76801L20.8581 2.24304C21.6217 1.51127 22.4731 0.954486 23.4123 0.572692C24.3516 0.190897 25.3137 0 26.2987 0C27.2837 0 28.2465 0.190897 29.187 0.572692C30.1275 0.954486 30.9623 1.51127 31.6916 2.24304L39.757 10.3084C40.4887 11.0402 41.0455 11.8834 41.4273 12.8378C41.8091 13.7923 42 14.7627 42 15.749C42 16.7353 41.8091 17.6981 41.4273 18.6373C41.0455 19.5765 40.4887 20.4114 39.757 21.1419L24.1034 36.7477C23.658 37.1931 23.1413 37.5431 22.5533 37.7976C21.9653 38.0522 21.3526 38.1794 20.715 38.1794Z" fill="#2BBE41" stroke="white" mask="url(#path-1-inside-1_217_197)"/>
</svg>
