<svg width="40" height="40" viewBox="0 0 40 40" fill="none" xmlns="http://www.w3.org/2000/svg">
<path d="M21.4667 11.6951L29.4234 13.8134M19.7634 18.0217L23.74 19.0817M19.9617 29.9434L21.5517 30.3684C26.0517 31.5684 28.3017 32.1667 30.075 31.1484C31.8467 30.1317 32.45 27.8934 33.655 23.4201L35.36 17.0917C36.5667 12.6167 37.1684 10.3801 36.145 8.61672C35.1217 6.85339 32.8734 6.25506 28.3717 5.05672L26.7817 4.63172C22.2817 3.43172 20.0317 2.83339 18.26 3.85172C16.4867 4.86839 15.8834 7.10672 14.6767 11.5801L12.9734 17.9084C11.7667 22.3834 11.1634 24.6201 12.1884 26.3834C13.2117 28.1451 15.4617 28.7451 19.9617 29.9434Z" stroke="black" stroke-width="3" stroke-linecap="round"/>
<path d="M20 34.9101L18.4133 35.3434C13.9233 36.5651 11.68 37.1768 9.90996 36.1384C8.1433 35.1018 7.53996 32.8201 6.3383 28.2584L4.63663 21.8051C3.4333 17.2434 2.83163 14.9618 3.8533 13.1651C4.73663 11.6101 6.66663 11.6668 9.16663 11.6668" stroke="black" stroke-width="3" stroke-linecap="round"/>
</svg>
