<svg width="40" height="40" viewBox="0 0 40 40" fill="none" xmlns="http://www.w3.org/2000/svg">
<path d="M3.6 6.0381V6.13333L3.69524 6.11429L5.71429 8.13333H3.6V30.9905H28.5714L37.581 40L40 37.581L6.59048 4.15238L2.4381 0L0 2.41905L3.6 6.0381ZM10.0952 14.6286C10.4762 14.2667 10.7619 13.8476 10.9524 13.3714L15.3333 17.7524C15.1238 18.3238 15.0286 18.9333 15.0286 19.5619C15.0286 21.0857 15.6381 22.5333 16.7048 23.6C17.7714 24.6667 19.219 25.2762 20.7429 25.2762C21.3714 25.2762 21.981 25.181 22.5524 24.9714L24.7619 27.181H11.219C11.219 26.1714 10.819 25.2 10.0952 24.4952C9.39048 23.7714 8.41905 23.3714 7.40952 23.3714V15.7524C8.41905 15.7524 9.39048 15.3524 10.0952 14.6286ZM31.581 24.3238L37.8857 30.6095V8.13333H15.4095L19.219 11.9429H30.2667C30.2667 12.9524 30.6667 13.9238 31.3905 14.6286C32.0952 15.3524 33.0667 15.7524 34.0762 15.7524V23.3714C33.1238 23.3714 32.2667 23.7143 31.581 24.3238Z" fill="black"/>
</svg>
