<svg width="38" height="38" viewBox="0 0 38 38" fill="none" xmlns="http://www.w3.org/2000/svg">
<g clip-path="url(#clip0_217_204)">
<path d="M31.3577 19.9849C31.7182 19.9849 32.0109 20.2766 32.011 20.6372C32.011 21.6893 31.1549 22.5452 30.1028 22.5454C29.0506 22.5454 28.1946 21.6895 28.1946 20.6372C28.1948 20.2768 28.4866 19.985 28.847 19.9849C29.2075 19.9849 29.5002 20.2766 29.5003 20.6372C29.5003 20.9692 29.7709 21.2397 30.1028 21.2397C30.4346 21.2395 30.7044 20.969 30.7044 20.6372C30.7046 20.2767 30.9972 19.9849 31.3577 19.9849Z" fill="#2BBE41" stroke="#2BBE41" stroke-width="0.2"/>
<mask id="path-2-outside-1_217_204" maskUnits="userSpaceOnUse" x="-1" y="-0.620605" width="40" height="39" fill="black">
<rect fill="white" x="-1" y="-0.620605" width="40" height="39"/>
<path d="M36.5486 20.1746L34.9921 19.676C34.7927 19.6121 34.6356 19.453 34.5718 19.2503C34.2438 18.2073 33.7487 17.2282 33.1004 16.3399C32.805 15.9351 32.4764 15.5484 32.1175 15.1804C32.3471 14.173 32.472 13.0329 32.4558 12.048C32.4326 10.6389 32.151 9.81252 31.595 9.52129C31.2955 9.36424 30.3841 8.88716 25.451 11.1453C25.3342 11.1988 25.2251 11.2646 25.1241 11.34C24.7915 11.2507 24.4516 11.168 24.1096 11.0938C24.0684 11.0848 24.0259 11.0768 23.9845 11.0681C24.3842 10.1948 24.6176 9.24638 24.6615 8.26729C24.6751 7.9621 24.4389 7.70367 24.1337 7.69009C23.8293 7.67495 23.5701 7.9126 23.5565 8.21778C23.4844 9.82766 22.8166 11.3424 21.6762 12.4829C20.9948 13.1643 20.1969 13.6593 19.3466 13.971C17.872 13.7641 16.3699 13.7641 14.8953 13.971C14.0449 13.6593 13.2471 13.1643 12.5657 12.4829C11.3489 11.2662 10.6788 9.64843 10.6788 7.92766C10.6788 6.20683 11.3489 4.58916 12.5657 3.37241C13.7824 2.1556 15.4002 1.48548 17.1209 1.48548C18.8416 1.48548 20.4594 2.1556 21.6762 3.37241C22.1651 3.86137 22.5692 4.41934 22.8771 5.03068C23.0145 5.30351 23.3471 5.41336 23.6198 5.2759C23.8926 5.1386 24.0024 4.80602 23.865 4.53327C23.5041 3.81639 23.0308 3.16275 22.4584 2.59022C21.0327 1.16455 19.1372 0.379395 17.121 0.379395C15.1049 0.379395 13.2093 1.16455 11.7836 2.59022C10.358 4.01596 9.57281 5.91144 9.57281 7.92759C9.57281 9.94374 10.358 11.8393 11.7836 13.265C12.1949 13.6762 12.6423 14.0299 13.1155 14.3261C13.1156 14.3261 13.1158 14.3261 13.1159 14.3261C12.7721 14.4154 12.4308 14.5158 12.0934 14.6286C11.8037 14.7254 11.6474 15.0387 11.7442 15.3285C11.841 15.6181 12.1544 15.7744 12.444 15.6777C15.46 14.6694 18.782 14.6694 21.798 15.6777C21.8562 15.6971 21.9152 15.7063 21.9734 15.7063C22.2047 15.7063 22.4204 15.5599 22.4978 15.3285C22.5946 15.0388 22.4383 14.7254 22.1487 14.6286C21.8112 14.5158 21.4699 14.4153 21.1261 14.3261C21.1262 14.3261 21.1264 14.3261 21.1265 14.3261C21.5998 14.0299 22.0471 13.6762 22.4584 13.265C22.8222 12.9011 23.1433 12.5038 23.4222 12.0816C23.5746 12.1112 23.726 12.1422 23.8751 12.1746C24.0737 12.2177 24.2714 12.264 24.4673 12.3127C24.4612 12.3367 24.4549 12.3607 24.4497 12.3851C24.18 13.665 24.1975 14.797 24.5018 15.7494C24.7752 16.6055 25.2687 17.2991 25.9683 17.811C26.793 18.4143 27.7885 18.6748 28.6904 18.6748C29.3691 18.6748 29.9948 18.5271 30.4544 18.2669C30.9742 17.9724 31.4097 17.352 31.7545 16.4206C31.9138 16.6066 32.0649 16.7971 32.2072 16.9921C32.7844 17.7829 33.2251 18.6544 33.5169 19.5822C33.6883 20.1272 34.1137 20.5561 34.6548 20.7295L36.2113 21.2281C36.6198 21.359 36.8941 21.7349 36.8941 22.1637V24.7447C36.8941 25.1735 36.6198 25.5494 36.2113 25.6803L33.7035 26.4835C33.3023 26.6122 32.9628 26.8879 32.7475 27.26C31.7622 28.9627 30.2132 30.3718 28.1432 31.448C27.904 31.5725 27.7384 31.7951 27.6885 32.0589L26.8853 36.3118C26.8631 36.429 26.7605 36.514 26.6412 36.514H24.0297C23.9104 36.514 23.8077 36.4289 23.7856 36.3118L23.3407 33.9614C23.2531 33.4989 22.8194 33.1917 22.3525 33.2625C21.2276 33.4326 20.0685 33.5187 18.9074 33.5187C18.0437 33.5187 17.191 33.4706 16.3729 33.3755C15.9205 33.3235 15.4991 33.6318 15.4146 34.0785L14.9918 36.3118C14.9696 36.429 14.867 36.514 14.7477 36.514H12.1362C12.0169 36.514 11.9143 36.4289 11.8918 36.31L11.1184 32.2932C11.0686 32.0344 10.9061 31.8143 10.6722 31.6894C7.14356 29.8056 5.27844 26.6585 5.27844 22.5883C5.27844 20.5319 5.72835 18.7134 6.61564 17.1833C7.44362 15.7554 8.65294 14.5748 10.21 13.6742C10.4743 13.5212 10.5647 13.1829 10.4118 12.9185C10.2589 12.6541 9.9206 12.564 9.65616 12.7167C6.63701 14.4632 4.81605 17.1577 4.31471 20.5799V20.5798C4.26149 20.575 4.2082 20.5704 4.15514 20.5649C4.16479 20.1957 4.09799 19.8231 3.95252 19.4615C3.63167 18.6639 2.97261 18.0883 2.27339 17.995C1.72239 17.9212 1.19804 18.1552 0.834145 18.6359C0.306523 19.3332 0.392543 19.8849 0.557531 20.225C0.836074 20.7989 1.55206 21.2049 2.74023 21.4601C2.70757 21.509 2.67165 21.5582 2.63232 21.6075C1.93028 22.488 1.10319 22.6826 0.566141 22.701C0.25175 22.7116 0 22.964 0 23.2786V23.2813C0 23.5916 0.244848 23.8447 0.554859 23.8589C0.594566 23.8607 0.636055 23.8617 0.67925 23.8617C1.3588 23.8617 2.44944 23.6111 3.49726 22.2972C3.6627 22.0898 3.79748 21.871 3.90109 21.6449C4.00544 21.6567 4.10571 21.6668 4.20175 21.6757C4.20175 21.6755 4.20175 21.6754 4.20182 21.6751C4.18297 21.9748 4.1725 22.2789 4.1725 22.5883C4.1725 24.8912 4.7215 26.9444 5.80413 28.6913C6.80237 30.3019 8.2316 31.6206 10.0535 32.6123L10.8054 36.5174C10.9263 37.1563 11.4859 37.62 12.1362 37.62H14.7477C15.3979 37.62 15.9576 37.1563 16.0785 36.5174L16.4608 34.4981C17.2546 34.5821 18.0765 34.6247 18.9074 34.6247C20.0474 34.6247 21.186 34.5453 22.2958 34.3886L22.6987 36.5175C22.8197 37.1564 23.3794 37.6201 24.0295 37.6201H26.641C27.2913 37.6201 27.851 37.1563 27.9719 36.5172L28.754 32.3765C30.9633 31.2082 32.6286 29.6735 33.7047 27.8139C33.7822 27.6799 33.9016 27.5815 34.0409 27.5369L36.5486 26.7337C37.4167 26.4554 38 25.6562 38 24.7445V22.1636C38 21.252 37.4167 20.4527 36.5486 20.1746ZM31.2667 13.6021C31.0539 15.4223 30.4829 16.9795 29.9092 17.3044C29.2571 17.6738 27.7516 17.7451 26.6212 16.9182C25.4895 16.0904 25.1129 14.6017 25.5318 12.6131C25.5739 12.4134 25.7158 12.2405 25.9114 12.151C28.6801 10.8836 30.2763 10.4691 30.8693 10.4691C30.9588 10.4691 31.0254 10.4786 31.0698 10.4959C31.2479 10.6858 31.4816 11.765 31.2667 13.6021ZM1.55273 19.742C1.49551 19.624 1.63059 19.4166 1.71623 19.3033C1.85198 19.124 1.97704 19.0873 2.07152 19.0873C2.09148 19.0873 2.11011 19.089 2.12718 19.0913C2.38146 19.1252 2.73771 19.405 2.92645 19.8741C2.9709 19.9846 3.02864 20.1675 3.04215 20.3957C2.27659 20.2371 1.6818 20.0084 1.55273 19.742Z"/>
</mask>
<path d="M36.5486 20.1746L34.9921 19.676C34.7927 19.6121 34.6356 19.453 34.5718 19.2503C34.2438 18.2073 33.7487 17.2282 33.1004 16.3399C32.805 15.9351 32.4764 15.5484 32.1175 15.1804C32.3471 14.173 32.472 13.0329 32.4558 12.048C32.4326 10.6389 32.151 9.81252 31.595 9.52129C31.2955 9.36424 30.3841 8.88716 25.451 11.1453C25.3342 11.1988 25.2251 11.2646 25.1241 11.34C24.7915 11.2507 24.4516 11.168 24.1096 11.0938C24.0684 11.0848 24.0259 11.0768 23.9845 11.0681C24.3842 10.1948 24.6176 9.24638 24.6615 8.26729C24.6751 7.9621 24.4389 7.70367 24.1337 7.69009C23.8293 7.67495 23.5701 7.9126 23.5565 8.21778C23.4844 9.82766 22.8166 11.3424 21.6762 12.4829C20.9948 13.1643 20.1969 13.6593 19.3466 13.971C17.872 13.7641 16.3699 13.7641 14.8953 13.971C14.0449 13.6593 13.2471 13.1643 12.5657 12.4829C11.3489 11.2662 10.6788 9.64843 10.6788 7.92766C10.6788 6.20683 11.3489 4.58916 12.5657 3.37241C13.7824 2.1556 15.4002 1.48548 17.1209 1.48548C18.8416 1.48548 20.4594 2.1556 21.6762 3.37241C22.1651 3.86137 22.5692 4.41934 22.8771 5.03068C23.0145 5.30351 23.3471 5.41336 23.6198 5.2759C23.8926 5.1386 24.0024 4.80602 23.865 4.53327C23.5041 3.81639 23.0308 3.16275 22.4584 2.59022C21.0327 1.16455 19.1372 0.379395 17.121 0.379395C15.1049 0.379395 13.2093 1.16455 11.7836 2.59022C10.358 4.01596 9.57281 5.91144 9.57281 7.92759C9.57281 9.94374 10.358 11.8393 11.7836 13.265C12.1949 13.6762 12.6423 14.0299 13.1155 14.3261C13.1156 14.3261 13.1158 14.3261 13.1159 14.3261C12.7721 14.4154 12.4308 14.5158 12.0934 14.6286C11.8037 14.7254 11.6474 15.0387 11.7442 15.3285C11.841 15.6181 12.1544 15.7744 12.444 15.6777C15.46 14.6694 18.782 14.6694 21.798 15.6777C21.8562 15.6971 21.9152 15.7063 21.9734 15.7063C22.2047 15.7063 22.4204 15.5599 22.4978 15.3285C22.5946 15.0388 22.4383 14.7254 22.1487 14.6286C21.8112 14.5158 21.4699 14.4153 21.1261 14.3261C21.1262 14.3261 21.1264 14.3261 21.1265 14.3261C21.5998 14.0299 22.0471 13.6762 22.4584 13.265C22.8222 12.9011 23.1433 12.5038 23.4222 12.0816C23.5746 12.1112 23.726 12.1422 23.8751 12.1746C24.0737 12.2177 24.2714 12.264 24.4673 12.3127C24.4612 12.3367 24.4549 12.3607 24.4497 12.3851C24.18 13.665 24.1975 14.797 24.5018 15.7494C24.7752 16.6055 25.2687 17.2991 25.9683 17.811C26.793 18.4143 27.7885 18.6748 28.6904 18.6748C29.3691 18.6748 29.9948 18.5271 30.4544 18.2669C30.9742 17.9724 31.4097 17.352 31.7545 16.4206C31.9138 16.6066 32.0649 16.7971 32.2072 16.9921C32.7844 17.7829 33.2251 18.6544 33.5169 19.5822C33.6883 20.1272 34.1137 20.5561 34.6548 20.7295L36.2113 21.2281C36.6198 21.359 36.8941 21.7349 36.8941 22.1637V24.7447C36.8941 25.1735 36.6198 25.5494 36.2113 25.6803L33.7035 26.4835C33.3023 26.6122 32.9628 26.8879 32.7475 27.26C31.7622 28.9627 30.2132 30.3718 28.1432 31.448C27.904 31.5725 27.7384 31.7951 27.6885 32.0589L26.8853 36.3118C26.8631 36.429 26.7605 36.514 26.6412 36.514H24.0297C23.9104 36.514 23.8077 36.4289 23.7856 36.3118L23.3407 33.9614C23.2531 33.4989 22.8194 33.1917 22.3525 33.2625C21.2276 33.4326 20.0685 33.5187 18.9074 33.5187C18.0437 33.5187 17.191 33.4706 16.3729 33.3755C15.9205 33.3235 15.4991 33.6318 15.4146 34.0785L14.9918 36.3118C14.9696 36.429 14.867 36.514 14.7477 36.514H12.1362C12.0169 36.514 11.9143 36.4289 11.8918 36.31L11.1184 32.2932C11.0686 32.0344 10.9061 31.8143 10.6722 31.6894C7.14356 29.8056 5.27844 26.6585 5.27844 22.5883C5.27844 20.5319 5.72835 18.7134 6.61564 17.1833C7.44362 15.7554 8.65294 14.5748 10.21 13.6742C10.4743 13.5212 10.5647 13.1829 10.4118 12.9185C10.2589 12.6541 9.9206 12.564 9.65616 12.7167C6.63701 14.4632 4.81605 17.1577 4.31471 20.5799V20.5798C4.26149 20.575 4.2082 20.5704 4.15514 20.5649C4.16479 20.1957 4.09799 19.8231 3.95252 19.4615C3.63167 18.6639 2.97261 18.0883 2.27339 17.995C1.72239 17.9212 1.19804 18.1552 0.834145 18.6359C0.306523 19.3332 0.392543 19.8849 0.557531 20.225C0.836074 20.7989 1.55206 21.2049 2.74023 21.4601C2.70757 21.509 2.67165 21.5582 2.63232 21.6075C1.93028 22.488 1.10319 22.6826 0.566141 22.701C0.25175 22.7116 0 22.964 0 23.2786V23.2813C0 23.5916 0.244848 23.8447 0.554859 23.8589C0.594566 23.8607 0.636055 23.8617 0.67925 23.8617C1.3588 23.8617 2.44944 23.6111 3.49726 22.2972C3.6627 22.0898 3.79748 21.871 3.90109 21.6449C4.00544 21.6567 4.10571 21.6668 4.20175 21.6757C4.20175 21.6755 4.20175 21.6754 4.20182 21.6751C4.18297 21.9748 4.1725 22.2789 4.1725 22.5883C4.1725 24.8912 4.7215 26.9444 5.80413 28.6913C6.80237 30.3019 8.2316 31.6206 10.0535 32.6123L10.8054 36.5174C10.9263 37.1563 11.4859 37.62 12.1362 37.62H14.7477C15.3979 37.62 15.9576 37.1563 16.0785 36.5174L16.4608 34.4981C17.2546 34.5821 18.0765 34.6247 18.9074 34.6247C20.0474 34.6247 21.186 34.5453 22.2958 34.3886L22.6987 36.5175C22.8197 37.1564 23.3794 37.6201 24.0295 37.6201H26.641C27.2913 37.6201 27.851 37.1563 27.9719 36.5172L28.754 32.3765C30.9633 31.2082 32.6286 29.6735 33.7047 27.8139C33.7822 27.6799 33.9016 27.5815 34.0409 27.5369L36.5486 26.7337C37.4167 26.4554 38 25.6562 38 24.7445V22.1636C38 21.252 37.4167 20.4527 36.5486 20.1746ZM31.2667 13.6021C31.0539 15.4223 30.4829 16.9795 29.9092 17.3044C29.2571 17.6738 27.7516 17.7451 26.6212 16.9182C25.4895 16.0904 25.1129 14.6017 25.5318 12.6131C25.5739 12.4134 25.7158 12.2405 25.9114 12.151C28.6801 10.8836 30.2763 10.4691 30.8693 10.4691C30.9588 10.4691 31.0254 10.4786 31.0698 10.4959C31.2479 10.6858 31.4816 11.765 31.2667 13.6021ZM1.55273 19.742C1.49551 19.624 1.63059 19.4166 1.71623 19.3033C1.85198 19.124 1.97704 19.0873 2.07152 19.0873C2.09148 19.0873 2.11011 19.089 2.12718 19.0913C2.38146 19.1252 2.73771 19.405 2.92645 19.8741C2.9709 19.9846 3.02864 20.1675 3.04215 20.3957C2.27659 20.2371 1.6818 20.0084 1.55273 19.742Z" fill="#2BBE41"/>
<path d="M36.5486 20.1746L34.9921 19.676C34.7927 19.6121 34.6356 19.453 34.5718 19.2503C34.2438 18.2073 33.7487 17.2282 33.1004 16.3399C32.805 15.9351 32.4764 15.5484 32.1175 15.1804C32.3471 14.173 32.472 13.0329 32.4558 12.048C32.4326 10.6389 32.151 9.81252 31.595 9.52129C31.2955 9.36424 30.3841 8.88716 25.451 11.1453C25.3342 11.1988 25.2251 11.2646 25.1241 11.34C24.7915 11.2507 24.4516 11.168 24.1096 11.0938C24.0684 11.0848 24.0259 11.0768 23.9845 11.0681C24.3842 10.1948 24.6176 9.24638 24.6615 8.26729C24.6751 7.9621 24.4389 7.70367 24.1337 7.69009C23.8293 7.67495 23.5701 7.9126 23.5565 8.21778C23.4844 9.82766 22.8166 11.3424 21.6762 12.4829C20.9948 13.1643 20.1969 13.6593 19.3466 13.971C17.872 13.7641 16.3699 13.7641 14.8953 13.971C14.0449 13.6593 13.2471 13.1643 12.5657 12.4829C11.3489 11.2662 10.6788 9.64843 10.6788 7.92766C10.6788 6.20683 11.3489 4.58916 12.5657 3.37241C13.7824 2.1556 15.4002 1.48548 17.1209 1.48548C18.8416 1.48548 20.4594 2.1556 21.6762 3.37241C22.1651 3.86137 22.5692 4.41934 22.8771 5.03068C23.0145 5.30351 23.3471 5.41336 23.6198 5.2759C23.8926 5.1386 24.0024 4.80602 23.865 4.53327C23.5041 3.81639 23.0308 3.16275 22.4584 2.59022C21.0327 1.16455 19.1372 0.379395 17.121 0.379395C15.1049 0.379395 13.2093 1.16455 11.7836 2.59022C10.358 4.01596 9.57281 5.91144 9.57281 7.92759C9.57281 9.94374 10.358 11.8393 11.7836 13.265C12.1949 13.6762 12.6423 14.0299 13.1155 14.3261C13.1156 14.3261 13.1158 14.3261 13.1159 14.3261C12.7721 14.4154 12.4308 14.5158 12.0934 14.6286C11.8037 14.7254 11.6474 15.0387 11.7442 15.3285C11.841 15.6181 12.1544 15.7744 12.444 15.6777C15.46 14.6694 18.782 14.6694 21.798 15.6777C21.8562 15.6971 21.9152 15.7063 21.9734 15.7063C22.2047 15.7063 22.4204 15.5599 22.4978 15.3285C22.5946 15.0388 22.4383 14.7254 22.1487 14.6286C21.8112 14.5158 21.4699 14.4153 21.1261 14.3261C21.1262 14.3261 21.1264 14.3261 21.1265 14.3261C21.5998 14.0299 22.0471 13.6762 22.4584 13.265C22.8222 12.9011 23.1433 12.5038 23.4222 12.0816C23.5746 12.1112 23.726 12.1422 23.8751 12.1746C24.0737 12.2177 24.2714 12.264 24.4673 12.3127C24.4612 12.3367 24.4549 12.3607 24.4497 12.3851C24.18 13.665 24.1975 14.797 24.5018 15.7494C24.7752 16.6055 25.2687 17.2991 25.9683 17.811C26.793 18.4143 27.7885 18.6748 28.6904 18.6748C29.3691 18.6748 29.9948 18.5271 30.4544 18.2669C30.9742 17.9724 31.4097 17.352 31.7545 16.4206C31.9138 16.6066 32.0649 16.7971 32.2072 16.9921C32.7844 17.7829 33.2251 18.6544 33.5169 19.5822C33.6883 20.1272 34.1137 20.5561 34.6548 20.7295L36.2113 21.2281C36.6198 21.359 36.8941 21.7349 36.8941 22.1637V24.7447C36.8941 25.1735 36.6198 25.5494 36.2113 25.6803L33.7035 26.4835C33.3023 26.6122 32.9628 26.8879 32.7475 27.26C31.7622 28.9627 30.2132 30.3718 28.1432 31.448C27.904 31.5725 27.7384 31.7951 27.6885 32.0589L26.8853 36.3118C26.8631 36.429 26.7605 36.514 26.6412 36.514H24.0297C23.9104 36.514 23.8077 36.4289 23.7856 36.3118L23.3407 33.9614C23.2531 33.4989 22.8194 33.1917 22.3525 33.2625C21.2276 33.4326 20.0685 33.5187 18.9074 33.5187C18.0437 33.5187 17.191 33.4706 16.3729 33.3755C15.9205 33.3235 15.4991 33.6318 15.4146 34.0785L14.9918 36.3118C14.9696 36.429 14.867 36.514 14.7477 36.514H12.1362C12.0169 36.514 11.9143 36.4289 11.8918 36.31L11.1184 32.2932C11.0686 32.0344 10.9061 31.8143 10.6722 31.6894C7.14356 29.8056 5.27844 26.6585 5.27844 22.5883C5.27844 20.5319 5.72835 18.7134 6.61564 17.1833C7.44362 15.7554 8.65294 14.5748 10.21 13.6742C10.4743 13.5212 10.5647 13.1829 10.4118 12.9185C10.2589 12.6541 9.9206 12.564 9.65616 12.7167C6.63701 14.4632 4.81605 17.1577 4.31471 20.5799V20.5798C4.26149 20.575 4.2082 20.5704 4.15514 20.5649C4.16479 20.1957 4.09799 19.8231 3.95252 19.4615C3.63167 18.6639 2.97261 18.0883 2.27339 17.995C1.72239 17.9212 1.19804 18.1552 0.834145 18.6359C0.306523 19.3332 0.392543 19.8849 0.557531 20.225C0.836074 20.7989 1.55206 21.2049 2.74023 21.4601C2.70757 21.509 2.67165 21.5582 2.63232 21.6075C1.93028 22.488 1.10319 22.6826 0.566141 22.701C0.25175 22.7116 0 22.964 0 23.2786V23.2813C0 23.5916 0.244848 23.8447 0.554859 23.8589C0.594566 23.8607 0.636055 23.8617 0.67925 23.8617C1.3588 23.8617 2.44944 23.6111 3.49726 22.2972C3.6627 22.0898 3.79748 21.871 3.90109 21.6449C4.00544 21.6567 4.10571 21.6668 4.20175 21.6757C4.20175 21.6755 4.20175 21.6754 4.20182 21.6751C4.18297 21.9748 4.1725 22.2789 4.1725 22.5883C4.1725 24.8912 4.7215 26.9444 5.80413 28.6913C6.80237 30.3019 8.2316 31.6206 10.0535 32.6123L10.8054 36.5174C10.9263 37.1563 11.4859 37.62 12.1362 37.62H14.7477C15.3979 37.62 15.9576 37.1563 16.0785 36.5174L16.4608 34.4981C17.2546 34.5821 18.0765 34.6247 18.9074 34.6247C20.0474 34.6247 21.186 34.5453 22.2958 34.3886L22.6987 36.5175C22.8197 37.1564 23.3794 37.6201 24.0295 37.6201H26.641C27.2913 37.6201 27.851 37.1563 27.9719 36.5172L28.754 32.3765C30.9633 31.2082 32.6286 29.6735 33.7047 27.8139C33.7822 27.6799 33.9016 27.5815 34.0409 27.5369L36.5486 26.7337C37.4167 26.4554 38 25.6562 38 24.7445V22.1636C38 21.252 37.4167 20.4527 36.5486 20.1746ZM31.2667 13.6021C31.0539 15.4223 30.4829 16.9795 29.9092 17.3044C29.2571 17.6738 27.7516 17.7451 26.6212 16.9182C25.4895 16.0904 25.1129 14.6017 25.5318 12.6131C25.5739 12.4134 25.7158 12.2405 25.9114 12.151C28.6801 10.8836 30.2763 10.4691 30.8693 10.4691C30.9588 10.4691 31.0254 10.4786 31.0698 10.4959C31.2479 10.6858 31.4816 11.765 31.2667 13.6021ZM1.55273 19.742C1.49551 19.624 1.63059 19.4166 1.71623 19.3033C1.85198 19.124 1.97704 19.0873 2.07152 19.0873C2.09148 19.0873 2.11011 19.089 2.12718 19.0913C2.38146 19.1252 2.73771 19.405 2.92645 19.8741C2.9709 19.9846 3.02864 20.1675 3.04215 20.3957C2.27659 20.2371 1.6818 20.0084 1.55273 19.742Z" stroke="#2BBE41" stroke-width="0.4" mask="url(#path-2-outside-1_217_204)"/>
<path d="M17.3655 3.83105C17.4618 3.83105 17.5562 3.86528 17.6272 3.91895C17.6966 3.97141 17.7581 4.05441 17.7581 4.15527V4.32422C18.0755 4.34137 18.4408 4.39616 18.7395 4.50293C18.9039 4.56173 19.0549 4.63807 19.1663 4.73633C19.279 4.83592 19.3567 4.96401 19.3567 5.12012C19.3567 5.23169 19.3175 5.3886 19.2375 5.51953C19.1572 5.65108 19.0229 5.7752 18.8284 5.77539C18.7484 5.77539 18.6726 5.74933 18.6018 5.71777C18.5358 5.68838 18.448 5.64211 18.3684 5.60449C18.2174 5.53314 18.0259 5.46015 17.7581 5.42773V7.22461C18.1639 7.37632 18.5955 7.56405 18.9309 7.87402C19.2894 8.20537 19.5325 8.67116 19.5325 9.36133C19.5324 9.98169 19.3449 10.4728 19.0129 10.8281C18.6995 11.1636 18.2644 11.368 17.7581 11.4531V11.7012C17.7579 11.8018 17.6965 11.8841 17.6272 11.9365C17.5562 11.9902 17.4618 12.0254 17.3655 12.0254C17.163 12.0254 16.9829 11.8899 16.9827 11.7012V11.4932C16.4041 11.4675 15.9143 11.3034 15.5618 11.0801C15.3757 10.9622 15.2257 10.827 15.1213 10.6865C15.0175 10.5468 14.9553 10.3956 14.9553 10.248C14.9554 10.1056 15.0159 9.94662 15.1077 9.82324C15.1985 9.70118 15.3365 9.59285 15.5032 9.59277C15.6189 9.59277 15.7189 9.65361 15.8069 9.7207C15.8521 9.75522 15.8995 9.79508 15.9475 9.83594C15.9962 9.87738 16.0471 9.9212 16.1028 9.96484C16.3055 10.1236 16.5731 10.286 16.9827 10.3398V8.23145C16.5656 8.08277 16.115 7.9158 15.7649 7.63574C15.3889 7.33496 15.1301 6.90675 15.1301 6.25098C15.1301 5.60818 15.3742 5.15012 15.7454 4.84277C16.0897 4.55768 16.5369 4.40854 16.9827 4.34961V4.15527C16.9827 3.96637 17.1628 3.83107 17.3655 3.83105ZM17.6995 10.3047C17.8912 10.2529 18.0441 10.1711 18.1526 10.0547C18.2813 9.91645 18.3577 9.72465 18.3577 9.46777C18.3576 9.18425 18.2701 8.98702 18.1331 8.83594C18.0216 8.71316 17.8734 8.61704 17.6995 8.53223V10.3047ZM17.0413 5.45215C16.8296 5.49051 16.6558 5.55777 16.5315 5.65723C16.3901 5.77055 16.305 5.92953 16.3049 6.15332C16.3049 6.40041 16.3961 6.56354 16.5442 6.69043C16.6709 6.79891 16.8413 6.88151 17.0413 6.96191V5.45215Z" fill="#2BBE41" stroke="#2BBE41" stroke-width="0.2"/>
</g>
<defs>
<clipPath id="clip0_217_204">
<rect width="38" height="38" fill="white"/>
</clipPath>
</defs>
</svg>
