<svg width="40" height="36" viewBox="0 0 40 36" fill="none" xmlns="http://www.w3.org/2000/svg">
<path d="M19.4889 36V33.75H35.5556V16.9965C35.5556 12.7815 34.0252 9.26175 30.9644 6.43725C27.9022 3.61125 24.2474 2.19825 20 2.19825C15.7526 2.19825 12.0978 3.61125 9.03556 6.43725C5.97333 9.26325 4.44296 12.783 4.44444 16.9965V29.8125H0V19.224H2.22222L2.26 16.47C2.3 14.115 2.8037 11.9362 3.77111 9.93375C4.73852 7.93125 6.03037 6.189 7.64667 4.707C9.26296 3.225 11.1326 2.07 13.2556 1.242C15.3785 0.414 17.6274 0 20.0022 0C22.377 0 24.623 0.414 26.74 1.242C28.857 2.07 30.7185 3.2235 32.3244 4.7025C33.9304 6.1815 35.2156 7.9215 36.18 9.9225C37.1444 11.9235 37.6644 14.0948 37.74 16.4363L37.7778 19.2262H40V29.8125H37.7778V36H19.4889ZM14.1889 21.4627C13.7296 21.4627 13.3296 21.3053 12.9889 20.9903C12.6481 20.6753 12.4778 20.2852 12.4778 19.8202C12.4778 19.3552 12.6481 18.957 12.9889 18.6255C13.3296 18.294 13.7296 18.129 14.1889 18.1305C14.6481 18.1305 15.0474 18.2917 15.3867 18.6143C15.7274 18.9382 15.8978 19.3395 15.8978 19.818C15.8978 20.283 15.7274 20.673 15.3867 20.988C15.0459 21.303 14.6459 21.4605 14.1867 21.4605M25.8133 21.4605C25.3541 21.4605 24.9541 21.303 24.6133 20.988C24.2726 20.673 24.1022 20.283 24.1022 19.818C24.1022 19.353 24.2726 18.9555 24.6133 18.6255C24.9541 18.2955 25.3541 18.1305 25.8133 18.1305C26.2726 18.1305 26.6719 18.2917 27.0111 18.6143C27.3504 18.9368 27.5207 19.338 27.5222 19.818C27.5222 20.283 27.3519 20.673 27.0111 20.988C26.6704 21.303 26.2704 21.4605 25.8111 21.4605M8.26222 17.8875C8.06074 14.5185 9.13259 11.6468 11.4778 9.27225C13.8215 6.89775 16.7007 5.7105 20.1156 5.7105C22.9822 5.7105 25.523 6.58275 27.7378 8.32725C29.9526 10.0718 31.3059 12.363 31.7978 15.201C28.8541 15.1635 26.1222 14.403 23.6022 12.9195C21.0822 11.436 19.1489 9.3735 17.8022 6.732C17.2659 9.3285 16.1511 11.604 14.4578 13.5585C12.763 15.513 10.6978 16.956 8.26222 17.8875Z" fill="black"/>
</svg>
